PathFileType	4	(X/Y/Z)	Kaydara																																																																																																																									
DataRate	CameraRate	NumFrames	NumMarkers	Units	OrigDataRate	OrigDataStartFrame	OrigNumFrames																																																																																																																					
30	30	4	41	mm	30	1	258																																																																																																																					
Frame#	Time	SALE_LFHD			SALE_RFHD			SALE_LBHD			SALE_RBHD			SALE_LFTShould			SALE_RFTShould			SALE_LRRShould			SALE_RRRShould			SALE_T10			SALE_STRN			SALE_TRUN			SALE_LSHO			SALE_LUPA			SALE_LELB			SALE_LFRM			SALE_LWRA			SALE_LWRB			SALE_LFIN			SALE_RSHO			SALE_RUPA			SALE_RELB			SALE_RFRM			SALE_RWRB			SALE_RFIN			SALE_LFWT			SALE_RFWT			SALE_LBWT			SALE_RBWT			SALE_LTHI			SALE_LKNE			SALE_RWRA			SALE_LSHN			SALE_LANK			SALE_LHEE			SALE_LTOE			SALE_RTHI			SALE_RKNE			SALE_RSHN			SALE_RANK			SALE_RHEE			SALE_RTOE		
		X1	Y1	Z1	X2	Y2	Z2	X3	Y3	Z3	X4	Y4	Z4	X5	Y5	Z5	X6	Y6	Z6	X7	Y7	Z7	X8	Y8	Z8	X9	Y9	Z9	X10	Y10	Z10	X11	Y11	Z11	X12	Y12	Z12	X13	Y13	Z13	X14	Y14	Z14	X15	Y15	Z15	X16	Y16	Z16	X17	Y17	Z17	X18	Y18	Z18	X19	Y19	Z19	X20	Y20	Z20	X21	Y21	Z21	X22	Y22	Z22	X23	Y23	Z23	X24	Y24	Z24	X25	Y25	Z25	X26	Y26	Z26	X27	Y27	Z27	X28	Y28	Z28	X29	Y29	Z29	X30	Y30	Z30	X31	Y31	Z31	X32	Y32	Z32	X33	Y33	Z33	X34	Y34	Z34	X35	Y35	Z35	X36	Y36	Z36	X37	Y37	Z37	X38	Y38	Z38	X39	Y39	Z39	X40	Y40	Z40	X41	Y41	Z41
																																																																																																																												
1	0.01	227.46746	1651.52359	-1968.32291	98.10197	1644.55368	-1973.39691	229.36571	1643.14178	-2102.24686	103.76484	1635.30533	-2099.72702	249.82738	1405.61707	-2002.57751	107.9335	1399.0921	-2000.31433	241.06449	1454.70901	-2121.34888	90.11145	1457.10907	-2107.39655	164.20095	1300.62149	-2184.57672	177.66815	1330.93079	-1949.58588	177.97371	1243.74855	-1909.17053	364.65069	1429.50882	-2070.07568	410.48901	1211.71188	-2065.68451	397.07909	1101.08154	-2082.31689	421.51711	996.68945	-2041.9548	352.21306	863.97812	-1975.22919	421.06018	853.48213	-2007.80121	412.76237	813.82996	-1956.88995	-1.93928	1424.72366	-2056.44012	-39.50544	1193.89442	-2112.36252	-60.8617	1093.73131	-2062.64725	-52.47591	980.03235	-2070.11932	-61.75998	843.53127	-2018.55377	-64.03149	806.11076	-1962.56989	304.25907	978.01735	-1972.58011	24.53578	976.54518	-1983.23395	249.97673	1038.02551	-2142.73651	72.76913	1042.53685	-2148.26126	302.71917	677.62627	-2141.23291	293.0122	505.64812	-2066.33392	-11.17997	858.07831	-1969.15909	288.64004	307.94357	-2071.30783	285.02096	124.42818	-2122.33612	247.17676	75.72242	-2185.58868	257.67563	86.2009	-1988.43826	16.15889	723.96324	-2142.35016	33.59712	563.49632	-2041.83075	83.76458	374.47941	-2062.29401	34.87684	124.89347	-2119.92828	45.77813	78.12847	-1998.80264	79.87288	64.77569	-2188.97507
2	0.043	227.09015	1651.40793	-1968.25516	97.73824	1644.47296	-1973.28583	228.97108	1643.28354	-2102.18842	103.39926	1635.43457	-2099.6257	249.23403	1404.95941	-2002.63718	108.69658	1398.85925	-1999.35715	240.73105	1454.46167	-2121.50284	89.71602	1456.90674	-2107.68356	163.96111	1300.4541	-2184.85916	177.2471	1330.58182	-1949.95453	177.64137	1243.36136	-1909.64676	363.9851	1429.28528	-2071.02402	409.81991	1211.20522	-2066.07483	396.12629	1100.63324	-2082.89658	420.28812	996.12267	-2042.84668	351.1338	863.22876	-1976.67358	419.61514	852.71744	-2009.01611	411.14498	813.01544	-1958.452	-2.27549	1424.35806	-2056.7981	-39.77547	1193.59917	-2112.77481	-61.07936	1093.3461	-2063.069	-52.58741	979.70177	-2070.55618	-61.90245	843.15582	-2018.96637	-64.20861	805.74509	-1963.09357	304.05125	978.01285	-1972.91321	24.35073	976.5123	-1983.57895	249.79494	1037.94121	-2142.96127	72.60973	1042.36801	-2148.61404	302.72652	677.63054	-2141.19812	292.76217	505.46516	-2066.65894	-11.35604	857.7179	-1969.57886	288.54959	307.90346	-2071.3002	284.95228	124.45353	-2122.35504	247.13919	75.7173	-2185.57526	257.66401	86.20507	-1988.43475	16.08123	723.78395	-2142.40891	33.52139	563.48568	-2041.96564	83.73485	374.51595	-2062.40189	34.84675	124.89634	-2119.99146	45.74278	78.1164	-1998.78006	79.8703	64.74273	-2188.97522
3	0.077	226.91431	1651.39679	-1968.22144	97.38252	1644.38156	-1973.23013	228.6825	1643.34427	-2102.07245	103.07774	1635.51224	-2099.5752	248.87634	1404.58817	-2002.88208	108.19451	1398.45947	-1999.77066	240.4814	1454.22333	-2121.54709	89.3561	1456.68869	-2107.87155	163.69974	1300.28824	-2185.10742	176.8162	1330.02121	-1950.07431	177.30124	1242.74483	-1910.10635	363.97331	1428.44101	-2069.77829	409.25735	1210.75127	-2066.6391	395.25894	1100.18448	-2083.57208	419.27853	995.4953	-2043.7384	350.44815	862.40791	-1978.21808	418.36891	852.03316	-2010.31403	409.79511	812.16553	-1959.83719	-2.59623	1424.03717	-2057.07001	-39.99566	1193.22929	-2113.19687	-61.31902	1093.00148	-2063.56216	-52.81934	979.37027	-2071.10321	-62.11246	842.78885	-2019.51385	-64.45339	805.373	-1963.61099	303.86217	978.07236	-1973.11111	24.01532	976.50993	-1984.14368	249.6277	1037.84912	-2143.21503	72.52384	1042.23045	-2148.98849	302.71969	677.60193	-2141.20087	292.72644	505.78918	-2066.01929	-11.76223	857.49039	-1970.02151	288.48408	307.8903	-2071.31104	284.96962	124.58108	-2122.08267	247.12208	75.70797	-2185.60287	257.66788	86.18913	-1988.45322	16.00814	723.75511	-2142.68646	33.41727	563.479	-2042.12524	83.6797	374.49799	-2062.43561	34.85015	124.84184	-2120.01328	45.73536	78.12583	-1998.78113	79.8931	64.71048	-2188.93707
4	0.11	226.69596	1651.32828	-1968.1131	96.99837	1644.41467	-1973.2074	228.48141	1643.30841	-2101.90384	102.85403	1635.56427	-2099.57321	248.52558	1404.22501	-2002.98508	108.272	1398.06122	-1998.83865	240.19855	1454.04388	-2121.59332	89.07644	1456.50009	-2107.9895	163.42102	1300.12527	-2185.35156	176.59225	1329.53461	-1950.40253	177.10129	1242.23831	-1910.52887	363.62171	1428.02307	-2069.90082	408.80928	1210.28259	-2067.16888	394.6563	1099.70314	-2084.24957	418.56178	994.95834	-2044.73099	348.34091	861.5004	-1979.74197	417.4398	851.33942	-2011.47995	408.95954	811.48727	-1961.34659	-2.885	1423.67828	-2057.23633	-40.25994	1192.84828	-2113.53607	-61.58346	1092.67029	-2064.00513	-53.05129	978.94234	-2071.57516	-62.38774	842.4424	-2020.13794	-64.81503	804.92882	-1964.29337	303.74939	978.12187	-1973.50342	23.85091	976.55899	-1984.64294	249.49657	1037.74551	-2143.5257	72.46758	1042.06505	-2149.46777	302.67029	677.58369	-2141.19553	292.63718	505.56915	-2066.5303	-12.04584	857.15118	-1970.61142	288.44833	307.96291	-2071.30692	284.96378	124.58332	-2122.08405	247.136	75.71845	-2185.59235	257.64959	86.18423	-1988.461	15.90345	723.75008	-2142.92084	33.32945	563.48469	-2042.25739	83.66009	374.47067	-2062.50885	34.8594	124.82975	-2120.02533	45.7026	78.12003	-1998.76511	79.89863	64.68741	-2188.93845
